<?xml version="1.0" standalone="no"?>
<!DOCTYPE svg PUBLIC "-//W3C//DTD SVG 20010904//EN"
 "http://www.w3.org/TR/2001/REC-SVG-20010904/DTD/svg10.dtd">
<svg version="1.0" xmlns="http://www.w3.org/2000/svg"
 width="1280.000000pt" height="1278.000000pt" viewBox="0 0 1280.000000 1278.000000"
 preserveAspectRatio="xMidYMid meet">
<metadata>
Created by potrace 1.15, written by Peter Selinger 2001-2017
</metadata>
<g transform="translate(0.000000,1278.000000) scale(0.100000,-0.100000)"
fill="#000000" stroke="none">
<path d="M8150 12753 c-19 -2 -96 -13 -170 -24 -74 -11 -236 -31 -360 -44
-124 -13 -304 -33 -400 -44 -96 -11 -236 -26 -310 -31 -74 -6 -164 -15 -200
-20 -145 -21 -735 -90 -880 -104 -85 -9 -252 -27 -370 -40 -118 -14 -273 -30
-345 -36 -71 -6 -310 -33 -530 -60 -220 -27 -472 -56 -561 -65 -88 -8 -230
-24 -315 -35 -84 -11 -217 -25 -294 -30 -77 -6 -340 -35 -585 -65 -245 -29
-519 -61 -610 -70 -91 -9 -232 -25 -315 -36 -82 -11 -213 -24 -290 -29 -77 -6
-340 -35 -585 -65 -245 -30 -548 -64 -674 -75 -278 -25 -300 -33 -234 -84 37
-28 98 -56 428 -201 607 -265 866 -365 948 -365 37 0 186 20 1147 155 292 41
791 111 1110 155 899 125 1000 139 1155 165 80 13 287 43 460 65 173 22 407
54 520 71 262 38 940 135 1365 194 529 73 2021 283 2250 316 221 31 345 57
345 70 0 11 -100 41 -225 69 -55 12 -168 41 -251 66 -83 24 -209 57 -280 73
-72 16 -146 36 -167 44 -20 9 -49 15 -65 15 -15 -1 -64 11 -108 25 -43 14
-114 31 -157 37 -73 9 -368 12 -447 3z"/>
<path d="M9850 12366 c-178 -28 -1505 -219 -2090 -301 -217 -31 -615 -87 -885
-125 -269 -38 -827 -117 -1240 -175 -412 -58 -939 -133 -1170 -165 -1524 -216
-2652 -370 -2823 -385 -41 -4 -70 -11 -65 -15 4 -4 109 -49 233 -100 124 -51
331 -139 462 -196 130 -56 262 -110 293 -119 55 -17 60 -16 183 9 144 30 870
151 1702 286 311 50 646 104 745 120 467 76 1083 174 1400 225 193 30 404 64
470 75 66 11 332 53 590 94 2962 473 3360 537 3372 550 10 10 -47 26 -462 133
-290 74 -432 106 -485 109 -47 2 -132 -5 -230 -20z m-2312 -543 c-10 -2 -26
-2 -35 0 -10 3 -2 5 17 5 19 0 27 -2 18 -5z m-945 -140 c-7 -2 -21 -2 -30 0
-10 3 -4 5 12 5 17 0 24 -2 18 -5z m-1285 -200 c-10 -2 -26 -2 -35 0 -10 3 -2
5 17 5 19 0 27 -2 18 -5z m-1320 -200 c-10 -2 -26 -2 -35 0 -10 3 -2 5 17 5
19 0 27 -2 18 -5z m-1280 -200 c-10 -2 -26 -2 -35 0 -10 3 -2 5 17 5 19 0 27
-2 18 -5z"/>
<path d="M11020 12075 c-41 -7 -516 -84 -1055 -170 -1206 -192 -1357 -217
-1865 -299 -479 -77 -1628 -261 -3880 -621 -1514 -242 -1544 -247 -1537 -268
8 -26 288 -159 787 -375 394 -170 587 -245 683 -266 30 -7 28 -26 -4 -26 -10
0 -27 -5 -37 -11 -14 -8 -65 10 -257 89 -309 128 -971 412 -1143 490 -86 39
-134 56 -137 49 -8 -26 -15 -537 -16 -1121 0 -578 -11 -1082 -23 -1094 -3 -3
-28 16 -55 41 -28 26 -54 47 -60 47 -23 0 -115 87 -198 187 -60 73 -102 114
-124 123 -88 36 -398 250 -419 291 -7 11 -40 34 -75 50 -35 16 -67 34 -72 41
-4 7 -8 101 -8 208 0 107 -4 533 -9 945 l-9 750 -161 66 c-89 37 -419 178
-734 314 -316 135 -577 243 -580 240 -4 -4 -8 -1918 -10 -4253 l-3 -4247 24
-20 c64 -54 596 -477 860 -684 199 -156 297 -239 297 -252 0 -11 31 -42 83
-81 45 -34 139 -107 208 -163 69 -55 154 -123 190 -150 35 -28 132 -105 214
-171 154 -123 273 -209 281 -202 10 11 35 1309 31 1623 -5 379 -9 416 -58 465
-16 15 -111 84 -211 151 -241 163 -350 252 -541 438 -86 85 -159 152 -161 150
-2 -2 -9 -353 -16 -779 -6 -426 -14 -777 -16 -779 -3 -3 -4 373 -4 834 l1 839
50 -56 c27 -31 71 -70 98 -86 46 -29 70 -54 212 -221 47 -56 75 -79 116 -97
67 -30 152 -87 348 -234 82 -61 162 -118 176 -126 26 -13 27 -17 34 -131 7
-105 -7 -1305 -21 -1813 l-5 -195 162 -125 c196 -151 919 -723 1005 -794 33
-28 177 -142 320 -254 142 -111 292 -229 332 -262 40 -33 76 -60 80 -60 4 0
12 10 17 21 8 16 37 30 122 55 61 18 158 50 215 70 187 66 660 221 1185 390
703 225 1061 341 1773 574 333 109 781 255 995 325 925 300 1545 502 1750 570
121 41 517 169 880 285 722 231 699 224 935 305 150 52 431 142 698 225 l102
32 0 3876 c0 2132 -3 4110 -7 4395 l-6 519 -29 -6 c-15 -3 -43 -9 -60 -13
l-33 -6 25 21 25 20 -30 12 c-16 6 -77 23 -135 36 -205 49 -1115 278 -1330
335 -104 28 -97 28 -180 14z m1595 -445 c-11 -5 -27 -9 -35 -9 -9 0 -8 4 5 9
11 5 27 9 35 9 9 0 8 -4 -5 -9z m-418 -86 c-3 -3 -12 -4 -19 -1 -8 3 -5 6 6 6
11 1 17 -2 13 -5z m-100 -20 c-3 -3 -12 -4 -19 -1 -8 3 -5 6 6 6 11 1 17 -2
13 -5z m-91 -13 c-3 -5 -17 -11 -32 -14 -29 -5 -20 9 11 16 11 3 21 5 23 6 2
0 1 -3 -2 -8z m-100 -20 c-6 -9 -56 -22 -56 -14 0 4 40 21 53 22 5 1 6 -3 3
-8z m-72 -11 c-16 -16 -223 -57 -1594 -315 -426 -80 -1022 -193 -1325 -250
-484 -91 -937 -176 -2045 -381 -162 -30 -300 -52 -307 -50 -7 3 -15 1 -18 -4
-3 -4 -24 -11 -48 -15 -23 -3 -55 -9 -72 -12 -20 -3 -27 -2 -20 5 13 13 231
55 244 48 5 -4 11 -2 13 2 3 10 36 16 583 118 193 35 358 63 367 60 9 -2 18
-1 20 3 4 9 517 111 983 196 452 83 727 134 1020 190 127 24 327 62 445 84
118 22 514 96 880 165 366 68 710 132 765 141 55 9 102 19 104 21 2 2 7 4 10
4 3 0 1 -4 -5 -10z m-5444 -1030 c0 -5 -10 -10 -22 -10 -13 0 -34 -3 -48 -6
-17 -5 -22 -3 -15 4 18 19 85 28 85 12z m-125 -19 c-12 -10 -65 -24 -65 -16 0
7 40 24 60 24 8 1 10 -2 5 -8z m-99 -20 c-6 -8 -66 -21 -66 -14 0 5 43 22 58
22 7 1 11 -3 8 -8z m-101 -21 c-11 -5 -29 -9 -40 -9 l-20 0 20 9 c11 5 29 9
40 9 l20 0 -20 -9z m-80 -9 c-12 -12 -65 -26 -65 -17 0 3 15 10 33 15 43 12
42 12 32 2z m-100 -20 c-14 -12 -73 -25 -60 -13 6 6 19 12 30 15 34 8 40 8 30
-2z m-100 -20 c-14 -12 -73 -25 -60 -13 6 6 19 12 30 15 34 8 40 8 30 -2z
m-100 -22 c-16 -5 -43 -11 -60 -13 -16 -3 -46 -7 -65 -11 -28 -4 -31 -4 -13 4
13 6 41 12 64 15 23 3 44 8 47 11 3 3 17 5 31 4 25 -1 25 -1 -4 -10z m-180
-28 c-6 -4 -23 -11 -40 -14 l-30 -6 30 14 c35 16 54 19 40 6z m-105 -21 c-8
-5 -24 -9 -35 -9 -16 1 -16 2 5 9 35 11 48 11 30 0z m-95 -20 c-11 -5 -29 -8
-40 -8 -16 0 -15 2 5 8 34 11 60 11 35 0z m-88 -16 c-3 -3 -12 -4 -19 -1 -8 3
-5 6 6 6 11 1 17 -2 13 -5z m-40 -10 c-3 -3 -12 -4 -19 -1 -8 3 -5 6 6 6 11 1
17 -2 13 -5z m-170 -30 c-3 -3 -12 -4 -19 -1 -8 3 -5 6 6 6 11 1 17 -2 13 -5z
m4720 -1306 c65 -43 277 -316 333 -428 57 -115 64 -113 262 62 90 80 177 148
188 148 15 0 -9 -56 -163 -385 -82 -176 -165 -356 -184 -400 -42 -98 -206
-417 -259 -504 l-39 -64 -150 -32 c-82 -18 -240 -56 -350 -85 -110 -28 -231
-60 -270 -70 -38 -10 -101 -23 -140 -30 -38 -6 -107 -23 -152 -37 -46 -14 -90
-23 -98 -19 -23 9 -18 43 11 63 63 44 205 167 267 231 62 65 67 73 67 114 0
49 -27 113 -68 167 -16 20 -32 49 -36 64 -12 52 -116 260 -219 441 -76 133
-119 198 -170 253 -38 40 -75 73 -81 73 -7 0 -50 30 -96 66 -46 36 -96 68
-112 71 -24 5 -29 10 -26 31 3 22 10 27 64 38 34 7 138 33 230 59 93 26 201
53 239 60 39 7 110 24 159 39 48 14 95 26 103 26 9 0 73 14 144 30 165 39 247
49 390 47 107 -2 118 -4 156 -29z m-1632 -319 c74 -14 168 -58 245 -116 81
-61 244 -222 264 -262 17 -32 17 -33 -13 -86 -17 -30 -31 -63 -31 -73 0 -11
-47 -114 -105 -231 -58 -116 -105 -214 -105 -216 0 -3 -52 -116 -115 -251 -63
-134 -115 -249 -115 -253 0 -5 -16 -33 -36 -62 -21 -30 -50 -86 -65 -126 -62
-158 -113 -235 -152 -225 -12 3 -87 32 -167 65 -80 32 -210 83 -290 111 -245
88 -472 196 -478 227 -9 47 436 972 532 1109 74 105 207 270 217 270 5 0 24
14 42 30 53 47 184 90 298 99 8 0 42 -4 74 -10z m2523 -949 c31 -50 113 -177
181 -283 117 -182 215 -367 276 -522 85 -215 10 -517 -179 -713 -170 -178
-491 -377 -628 -390 -57 -5 -72 8 -137 124 -25 44 -129 214 -232 380 -212 339
-301 495 -325 568 l-17 49 45 41 c24 23 123 111 219 197 96 86 274 248 394
359 240 222 309 280 331 280 8 0 41 -41 72 -90z m-3311 -992 c12 -13 35 -52
53 -88 18 -36 58 -103 90 -150 31 -47 71 -114 88 -150 35 -73 183 -314 213
-346 11 -12 17 -28 14 -37 -4 -9 13 -44 44 -89 61 -90 76 -124 56 -132 -18 -7
-72 9 -151 45 -36 16 -70 27 -75 24 -5 -3 -40 8 -78 25 -38 16 -74 30 -80 30
-33 0 -388 -693 -531 -1036 -59 -142 -123 -412 -145 -614 -4 -30 -9 -61 -11
-68 -3 -11 -69 72 -198 253 -12 17 -26 44 -32 61 -6 16 -40 75 -77 130 -36 54
-109 182 -162 284 -54 102 -113 206 -132 232 -19 26 -31 53 -28 59 4 6 -7 42
-25 81 -31 66 -32 76 -27 152 6 96 43 215 162 526 94 243 110 292 102 313 -7
18 -90 57 -208 96 -53 17 -104 38 -115 45 -17 13 -15 15 22 34 57 29 337 113
584 177 118 30 289 79 380 109 186 62 236 68 267 34z m3519 -774 c-14 -35 -88
-200 -165 -367 -76 -166 -144 -318 -152 -337 -7 -19 -28 -54 -46 -78 -18 -24
-33 -51 -33 -59 0 -27 -155 -333 -224 -443 -78 -122 -144 -188 -252 -250 -80
-46 -498 -206 -566 -217 -23 -3 -43 -13 -49 -24 -9 -18 -27 -250 -32 -424 l-2
-80 -140 223 c-77 123 -193 305 -259 405 -65 100 -129 206 -142 235 -14 30
-30 52 -39 52 -9 0 -21 12 -27 26 -29 64 17 185 277 724 76 157 149 314 162
350 27 71 125 273 148 304 8 11 18 17 21 13 3 -3 10 -108 14 -234 5 -125 12
-236 16 -246 4 -11 13 -16 22 -12 9 3 69 15 133 26 260 43 599 124 702 168 23
9 71 25 107 35 88 24 263 117 417 222 144 97 152 96 109 -12z m-2417 -1076
c-1 -403 -13 -870 -24 -904 -5 -17 -27 -27 -108 -49 -56 -15 -165 -50 -242
-77 -77 -27 -148 -47 -158 -44 -10 2 -48 -6 -85 -18 -156 -53 -428 -106 -548
-106 -95 0 -155 23 -222 85 -87 80 -108 116 -137 235 -47 197 -31 374 61 665
48 151 63 174 134 209 54 28 265 95 410 131 163 41 571 155 607 170 18 8 73
21 123 31 49 9 109 22 132 29 24 8 46 14 51 14 4 1 7 -167 6 -371z"/>
<path d="M1564 11095 c-27 -41 -33 -198 -33 -815 0 -628 9 -953 28 -988 6 -12
26 -29 44 -38 17 -10 84 -56 147 -104 63 -47 171 -124 239 -170 93 -63 167
-125 288 -243 230 -223 237 -220 254 113 5 102 8 564 7 1028 l-3 842 -270 121
c-148 66 -324 142 -390 169 -66 26 -149 62 -185 79 -79 38 -104 39 -126 6z"/>
</g>
</svg>
